<svg xmlns="http://www.w3.org/2000/svg" width="24" height="24" viewBox="0 0 24 24" fill="none"><path d="M 10.105 0 C 12.821 0 15.368 1.077 17.251 2.959 C 19.133 4.841 20.211 7.389 20.211 10.105 C 20.211 12.821 19.133 15.368 17.251 17.251 C 16.881 17.621 16.281 17.621 15.911 17.251 C 15.541 16.881 15.541 16.281 15.911 15.911 C 17.442 14.38 18.316 12.313 18.316 10.105 C 18.316 7.896 17.442 5.829 15.911 4.299 C 14.381 2.769 12.313 1.895 10.105 1.895 C 5.571 1.895 1.895 5.571 1.895 10.105 C 1.895 14.639 5.571 18.316 10.105 18.316 C 11.108 18.316 12.086 18.136 13.004 17.79 C 13.494 17.606 14.04 17.854 14.225 18.343 C 14.409 18.833 14.162 19.379 13.672 19.564 C 12.541 19.989 11.337 20.211 10.105 20.211 C 4.525 20.211 0 15.686 0 10.105 C 0 4.524 4.525 0 10.105 0 Z" fill="#171719" fill-rule="nonzero" transform="matrix(1 0 0 1 1.895 1.895)"/><path d="M 10.105 5.053 C 10.585 5.053 10.981 5.409 11.044 5.871 L 11.053 6 L 11.053 9.158 L 14.211 9.158 C 14.734 9.158 15.158 9.582 15.158 10.105 C 15.158 10.585 14.802 10.981 14.339 11.044 L 14.211 11.053 L 11.053 11.053 L 11.053 14.211 C 11.053 14.734 10.629 15.158 10.105 15.158 C 9.626 15.158 9.229 14.801 9.167 14.339 L 9.158 14.211 L 9.158 11.053 L 6 11.053 C 5.477 11.053 5.053 10.628 5.053 10.105 C 5.053 9.626 5.409 9.229 5.871 9.167 L 6 9.158 L 9.158 9.158 L 9.158 6 C 9.158 5.477 9.582 5.053 10.105 5.053 Z" fill="#171719" fill-rule="nonzero" transform="matrix(1 0 0 1 1.895 1.895)"/></svg>